<svg id="Layer_1" data-name="Layer 1" xmlns="http://www.w3.org/2000/svg" width="16" height="16" viewBox="0 0 16 16"><title>Artboard 1</title><path d="M1.7,7.8c-.5-.3-.7-.4-.9-.4s.7.6.4,1.7a2.8,2.8,0,0,1-.7,1.6.7.7,0,0,0,.9-.4l.8-1.2v-1Z" fill="#843334"/><path d="M1.7,7.8a1.1,1.1,0,0,0,.8-.9,1.4,1.4,0,0,1,1-.9c.5-.1,1-1.4,1.2-1.7s.6.6.5,1.1A1.7,1.7,0,0,0,6,6c.3.2,1,1.6,1.4,1.8a6.1,6.1,0,0,0,1.7.4h.5l.4.2a1.1,1.1,0,0,1,.1.3c0,.1,0,.8-.3.9a10.6,10.6,0,0,1-1.6,1.1A3,3,0,0,1,6,11a7.2,7.2,0,0,0-3-.8l-1.7.2A3.2,3.2,0,0,0,1.7,7.8Z" fill="#9cc" stroke="#843334" stroke-miterlimit="10" stroke-width="0.5"/><path d="M1.4,10.3l-.2.9" fill="#9cc" stroke="#843334" stroke-miterlimit="10" stroke-width="0.5"/><circle cx="1.1" cy="11.7" r="0.6" fill="#9cc" stroke="#843334" stroke-miterlimit="10" stroke-width="0.5"/><text transform="translate(7.4 7.4)" font-size="2.99" fill="#843334" font-family="MyriadPro-Bold, Myriad Pro" font-weight="700"><tspan letter-spacing="-0.04em">LO</tspan><tspan x="3.5" y="0" letter-spacing="-0.09em">Y</tspan><tspan x="5" y="0">AL</tspan></text><text transform="translate(10.5 9)" font-size="1.65" fill="#843334" font-family="MyriadPro-Regular, Myriad Pro">RESCUE</text></svg>