<svg id="Layer_1" data-name="Layer 1" xmlns="http://www.w3.org/2000/svg" width="256" height="256" viewBox="0 0 256 256"><title>Artboard 1</title><path d="M21.6,119.7c-8.4-5.7-11.7-6.4-14.8-6.4s11.3,9.2,7,27.3c-2.9,12.3-5.1,20.9-12.1,26.7,6.4.6,10.1,1.2,15.2-7.2s12.5-19.6,12.5-19.6l-1.2-16.7Z" fill="#843334"/><path d="M21.6,119.7c9.4-2.2,11.9-9,13.5-14.8S43.4,91.4,52,89.7s17.2-23,19.7-27.9,9.8,9.4,8.6,18.5c5.3,7,7.8,7.2,13.1,10s16,25.7,22.6,29.4,24.6,7.4,28.3,7.4,6.4-.4,8-1.4l6.8,4.1s1.4,4.5,1,5.5-.2,12.7-4.7,15.6-17.6,15.4-26.5,18.9-22.8,7-35.7,1.6-33-15.4-49-14-27.9,3.5-27.3,2.7C21.2,154.6,25.9,139.6,21.6,119.7Z" fill="#9cc" stroke="#843334" stroke-miterlimit="10" stroke-width="5"/><path d="M16.9,160.1c-2.1,9.2-3.3,14-3.3,14" fill="#9cc" stroke="#843334" stroke-miterlimit="10" stroke-width="3"/><circle cx="12.6" cy="184" r="9.8" fill="#9cc" stroke="#843334" stroke-miterlimit="10" stroke-width="5"/><text transform="translate(115.2 115.3)" font-size="49.24" fill="#843334" font-family="MyriadPro-Bold, Myriad Pro" font-weight="700"><tspan letter-spacing="-0.04em">L</tspan><tspan x="23.3" y="0" letter-spacing="-0.04em">O</tspan><tspan x="56.8" y="0" letter-spacing="-0.09em">Y</tspan><tspan x="81.9" y="0">AL</tspan></text><text transform="translate(166.3 139.3)" font-size="27.08" fill="#843334" font-family="MyriadPro-Regular, Myriad Pro">RESCUE</text></svg>