<svg id="Layer_1" data-name="Layer 1" xmlns="http://www.w3.org/2000/svg" width="64" height="64" viewBox="0 0 64 64"><title>Artboard 1</title><path d="M5.7,29.4C3.6,28,2.8,27.9,2.1,27.9s2.8,2.3,1.7,6.7-1.3,5.1-3,6.6c1.6.2,2.5.3,3.7-1.8l3.1-4.8-.3-4.1Z" fill="#843334"/><path d="M5.7,29.4C8,28.9,8.6,27.2,9,25.8A5.8,5.8,0,0,1,13.2,22c2.1-.4,4.2-5.7,4.8-6.9s2.4,2.3,2.1,4.5a6.7,6.7,0,0,0,3.2,2.5c1.3.7,3.9,6.3,5.6,7.2a24.6,24.6,0,0,0,7,1.8,3.9,3.9,0,0,0,2-.4l1.7,1a4.4,4.4,0,0,1,.3,1.4c.2.6-.1,3.1-1.2,3.8s-4.3,3.8-6.5,4.6-5.6,1.7-8.8.4-8.1-3.8-12.1-3.4-6.9.9-6.7.7S6.8,34.3,5.7,29.4Z" fill="#9cc" stroke="#843334" stroke-miterlimit="10" stroke-width="1.5"/><path d="M4.6,39.4c-.5,2.3-.8,3.5-.8,3.5" fill="#9cc" stroke="#843334" stroke-miterlimit="10" stroke-width="1.5"/><circle cx="3.5" cy="45.2" r="2.4" fill="#9cc" stroke="#843334" stroke-miterlimit="10" stroke-width="1.5"/><text transform="translate(28.7 27.8)" font-size="12.11" fill="#843334" font-family="MyriadPro-Bold, Myriad Pro" font-weight="700"><tspan letter-spacing="-0.04em">L</tspan><tspan x="5.7" y="0" letter-spacing="-0.04em">O</tspan><tspan x="14" y="0" letter-spacing="-0.09em">Y</tspan><tspan x="20.2" y="0">AL</tspan></text><text transform="translate(41.3 34.2)" font-size="6.66" fill="#843334" font-family="MyriadPro-Regular, Myriad Pro">RESCUE</text></svg>