<svg xmlns="http://www.w3.org/2000/svg"><symbol id="dog-1" viewBox="0 0 432 432"><path fill="none" stroke="#fff" stroke-miterlimit="10" stroke-width="11" d="M245.3 310v28.3c0 9.9 16.4-7.5 21.9-10.9s30.8-11.9 37.8-27.8 18.9-16.9 21.9-37.8 37.8-32.4 45.7-37.8-14.4-31.8-18.4-44.2-14.9-42.2-35.3-58.2-47.7-36.3-78.5-33.3-50.7 10.9-67.1 29.8-31.8 38.3-40.3 44.7-21.4 8.4-36.8 10.9-22.4 4-29.8 5-10.9 16.9-7 22.9 9.4 7 8.9 19.4-1 38.8 14.9 47.2 24.9 6.5 29.3 6 8 7 11.9 12.4 17.9 13.4 36.8 9.4 20.9-7.5 24.9-9.4 7.5 14.9 21.9 17.9 27.8 3.5 36.8 1z"/><path fill="none" stroke="#fff" stroke-miterlimit="10" stroke-width="11" d="M133 162.9c-3 12.4-6 29.3 5 41.3s11.9 20.9 9.4 30.3 4.7 22.9 1.1 32.8-12.9 18.6-29.1 11.8"/><path fill="none" stroke="#fff" stroke-linecap="round" stroke-linejoin="round" stroke-width="11" d="M174.2 166.3c-4.5 7.5-13.4 13.4-17.4 8.9s.5-16.4 5.5-16.4m59.2-27.7c-1.1 21.4-5.5 43.7-19.4 64.1s-22.9 45.7-19.4 68.6 6.3 30.3 19 38.3 33.1 8.5 50 0 36.8-27.3 44.7-47.7 7-38.8 11.9-47.7 12.9-33.8 0-49.7-21.4-20.9-30.8-18.4"/><path fill="none" stroke="#fff" stroke-miterlimit="10" stroke-width="11" d="M80.8 176.4c6.1-1.1 14.4 14.8 6.9 21.8s-14.2 14-21.3 12.2"/></symbol><symbol id="dog-2" viewBox="0 0 432 432"><g fill="none" stroke="#fff" stroke-linecap="round" stroke-linejoin="round" stroke-width="11"><path d="M167.2 257.5c4.9 15.7 2.9 33.4 0 43.2s8.8 6.9 18.7 7.9 25.3 3.9 34.7 22.6 24.8 7.3 32.7 6.4 35.9 10.4 41.8 17.3 2.8-28.5-.1-36.4 1.6-18.7 1.3-39.3-.6-51.1 0-55 5.6 2.9 24.2-9.8 37.3-36.4 41.3-60.9 3.9-47.2-29.5-58-40.3-7.9-45.2 0-1 31.4 5.9 45.2-3.9 32.4-6.9 47.2-2 28.5 10.2 36.4"/><path d="M278.2 94.3c-18.7-7.9-42.5-17.7-57.6-11.8s-30.8 6.9-40.6 11.8-20.6 26.5-26.5 38.3-7.9 20.6-22.6 20.6-35.2 7.9-47.9 8.8-19.1 24.2-10.3 35.1 6.7 11.2 13.6 16.1 1.8 13.3 9.2 25.4c12.3 20 38.5 19.3 51.4 18.9s30.2-9 47.9-2.1 36.4 22.6 44.2 33.4"/><path d="M94.5 162.1c19.7 2.9 27.3 9.6 22.4 21.3s4 9.4-11.1 18.2-33.1-4.5-33.1-4.5m152.5-66.4c-14.7 6.9-35.4 9.8-25.5-6.9m-5.9-38.9c-11.8-7-39.4-10.6-44.3 3.4s-16.7 44.4-11.8 56.2"/></g></symbol><symbol id="dog-3" viewBox="0 0 432 432"><g fill="none" stroke="#fff" stroke-linecap="round" stroke-linejoin="round" stroke-width="11"><path d="M232.8 240.4c3.8 11-1.4 40.2-32.5 28.2-13.9-6.2-14.8 10.5-29.7 9.1s-34.4-10.5-44-10.5-22 2.4-30.6.5-15.8-10.5-16.7-12.4-6.7-10-8.6-14.8-3.3-9.6-2.4-15.8-9.6-6.2-11-13.4-3.3-20.1 6.7-25.4 15.3-6.7 22-8.1 16.3 13.9 12 17.2-13 7.6-13 11 2.4 11.5-4.3 13.9a49.6 49.6 0 0 1-12 2.8"/><path d="M86 177.8c10.5-5.7 26.8-5.3 42.1-9.6s30.6-24.4 37.3-30.6 18.2-18.6 31.4-26.5c18.1-10.9 37.1-13.3 50.5-10.5s15.2 15.9 15.2 15.9-5.2-12.7 3.9-18.7c40.4-26.6 53.6 3.9 71.3 5.3s20.4 29.7 11.9 41.6c-2.8 3.8-9.1 4.8-8.6 12s-.5 13.9-7.7 30.1-10.9 11.1-4.8 32.5c12.1 42.2 28.4 132.8 19.8 125.2-30.1-23-31.5-7.5-37.2-3.2s-49.8-18.6-68.6-12.8c-10.5 3.3-42.9 6.4-42.9-.3S181.7 286 176 277.8"/><path d="M260.7 111.3c1.9 10 13.2 30.6 12.7 39.7s-2.9 19.9-4.3 26.7 3.8 12.1 15.8 10.6 28.7-12 32.5-16.3 11-22 26.3-23m-151.8-6.5c-11.7 10.6-3.7 25 19.1 14.9"/></g></symbol><symbol id="nav" viewBox="0 0 572 390"><path fill="#fff" d="M97.7 188.3C84 179 78.7 178 73.7 178S90 195 85 222.3c-3.7 20.2-8.3 34-19.7 43.3 10.3 1 16.3 2 24.7-11.7s20.3-31.9 20.3-31.9l-2-27.1z"/><path fill="#fff" stroke="#fff" stroke-miterlimit="10" stroke-width="7" d="M97.7 188.3c15.3-3.6 19.3-14.7 22-24s13.3-22 27.3-24.7 28-37.3 32-45.3 16 15.3 14 30c8.7 11.3 12.7 11.7 21.3 16.2s26 41.8 36.7 47.8 40 12 46 12 10.3-.7 13-2.3c6.3 4 11 6.7 11 6.7s2.3 7.3 1.7 9c1 3.7-.3 20.7-7.7 25.3s-28.7 25-43 30.7-37 11.3-58 2.7-53.7-25-79.7-22.7S89 255.3 90 254c7-9 14.7-33.3 7.7-65.7z"/><path fill="#9cc" stroke="#fff" stroke-miterlimit="10" stroke-width="6" d="M90 254c-3.3 15-5.3 22.8-5.3 22.8"/><circle cx="82.9" cy="292.7" r="15.9" fill="none" stroke="#fff" stroke-miterlimit="10" stroke-width="7"/><path fill="#fff" d="M260 121.5h12.2v43.7h21.4v10.2H260zm87.1 26.4c0 17.8-10.6 28.4-26.5 28.4s-25.4-12.1-25.4-27.5 10.4-28.2 26.2-28.2 25.7 12.4 25.7 27.3zm-39 .6c0 10.6 5 18.1 13.1 18.1s13-7.8 13-18.3-4.6-18.1-13-18.1-13 7.9-13 18.4zm56.6 27v-22.1l-17-31.8h14l5.4 13c1.7 3.9 2.9 6.8 4.2 10.3h.2c1.2-3.4 2.5-6.5 4.1-10.3l5.4-13h13.7L376.8 153v22.5zm40.9-13.9l-3.8 13.8h-12.6l16.4-53.9h16l16.8 53.9h-13.2l-4.2-13.8zm13.7-9.1l-3.4-11.4c-1-3.2-1.9-7.2-2.7-10.4h-.2c-.8 3.2-1.6 7.3-2.5 10.4l-3.2 11.4zm26.3-31h12.2v43.7h21.4v10.2h-33.6zM342 184a44.6 44.6 0 0 1 7.3-.6c4.1 0 6.8.8 8.6 2.4a7.6 7.6 0 0 1 2.3 5.7 7.8 7.8 0 0 1-5.5 7.5c2.2.8 3.6 2.9 4.3 6s1.7 7 2.3 8.1h-4a37.2 37.2 0 0 1-1.9-7.1c-.9-4.1-2.5-5.6-6-5.8h-3.6V213H342zm3.8 13.5h3.9c4.1 0 6.7-2.2 6.7-5.6s-2.8-5.5-6.8-5.5a16.8 16.8 0 0 0-3.8.3zm35.2 1.8h-11.5V210h12.9v3.2h-16.8v-29.6h16.1v3.2h-12.2v9.4H381zm5.8 9.3a13 13 0 0 0 6.8 1.9c3.9 0 6.2-2.1 6.2-5.1s-1.6-4.4-5.6-5.9-7.8-4.3-7.8-8.4 3.8-8.1 9.6-8.1a13.3 13.3 0 0 1 6.5 1.5l-1.1 3.1a11 11 0 0 0-5.6-1.4c-4 0-5.6 2.4-5.6 4.4s1.8 4.1 5.9 5.7 7.5 4.4 7.5 8.7-3.3 8.6-10.3 8.6a15.3 15.3 0 0 1-7.6-1.9zm42.9 3.7a18.8 18.8 0 0 1-7.8 1.4c-8.4 0-14.6-5.3-14.6-15s6.3-15.6 15.5-15.6a16.1 16.1 0 0 1 7 1.3l-1 3.1a13.6 13.6 0 0 0-5.9-1.2c-7 0-11.6 4.4-11.6 12.2s4.2 11.9 11.4 11.9a15.4 15.4 0 0 0 6.3-1.2zm8.7-28.7v17.6c0 6.6 2.9 9.4 6.9 9.4s7.2-2.9 7.2-9.4v-17.6h3.9v17.3c0 9.1-4.8 12.8-11.2 12.8s-10.6-3.4-10.6-12.7v-17.4zm39.9 15.7h-11.5V210h12.8v3.2H463v-29.6h16v3.2h-12.2v9.4h11.5z"/></symbol><symbol id="logo" viewBox="0 0 572 390"><path fill="#843334" d="M97.7 188.3C84 179 78.7 178 73.7 178S90 195 85 222.3c-3.7 20.2-8.3 34-19.7 43.3 10.3 1 16.3 2 24.7-11.7s20.3-31.9 20.3-31.9l-2-27.1z"/><path fill="#9cc" stroke="#843334" stroke-miterlimit="10" stroke-width="7" d="M97.7 188.3c15.3-3.6 19.3-14.7 22-24s13.3-22 27.3-24.7 28-37.3 32-45.3 16 15.3 14 30c8.7 11.3 12.7 11.7 21.3 16.2s26 41.8 36.7 47.8 40 12 46 12 10.3-.7 13-2.3c6.3 4 11 6.7 11 6.7s2.3 7.3 1.7 9c1 3.7-.3 20.7-7.7 25.3s-28.7 25-43 30.7-37 11.3-58 2.7-53.7-25-79.7-22.7S89 255.3 90 254c7-9 14.7-33.3 7.7-65.7z"/><path fill="#9cc" stroke="#843334" stroke-miterlimit="10" stroke-width="6" d="M90 254c-3.3 15-5.3 22.8-5.3 22.8"/><circle cx="82.9" cy="292.7" r="15.9" fill="#9cc" stroke="#843334" stroke-miterlimit="10" stroke-width="7"/><g fill="#843334"><text font-family="MyriadPro-Bold, Myriad Pro" font-size="80" font-weight="700" letter-spacing="-.04em" transform="translate(251.7 182.5)">L<tspan x="37.8" y="0">O</tspan><tspan x="92.2" y="0" letter-spacing="-.09em">Y</tspan><tspan x="133.1" y="0" letter-spacing="0em">AL</tspan></text><text font-family="MyriadPro-Regular, Myriad Pro" font-size="44" transform="translate(335.7 220.2)">RESCUE</text></g></symbol></svg>