<svg xmlns="http://www.w3.org/2000/svg"><symbol id="nav" viewBox="0 0 572 390"><path fill="#fff" d="M97.7 188.3C84 179 78.7 178 73.7 178S90 195 85 222.3c-3.7 20.2-8.3 34-19.7 43.3 10.3 1 16.3 2 24.7-11.7s20.3-31.9 20.3-31.9l-2-27.1z"/><path fill="#fff" stroke="#843334" stroke-miterlimit="10" stroke-width="7" d="M97.7 188.3c15.3-3.6 19.3-14.7 22-24s13.3-22 27.3-24.7 28-37.3 32-45.3 16 15.3 14 30c8.7 11.3 12.7 11.7 21.3 16.2s26 41.8 36.7 47.8 40 12 46 12 10.3-.7 13-2.3c6.3 4 11 6.7 11 6.7s2.3 7.3 1.7 9c1 3.7-.3 20.7-7.7 25.3s-28.7 25-43 30.7-37 11.3-58 2.7-53.7-25-79.7-22.7S89 255.3 90 254c7-9 14.7-33.3 7.7-65.7z"/><path fill="#9cc" stroke="#843334" stroke-miterlimit="10" stroke-width="6" d="M90 254c-3.3 15-5.3 22.8-5.3 22.8"/><circle cx="82.9" cy="292.7" r="15.9" fill="#fff" stroke="#843334" stroke-miterlimit="10" stroke-width="7"/><g fill="#fff"><text font-family="MyriadPro-Bold, Myriad Pro" font-size="80" font-weight="700" letter-spacing="-.04em" transform="translate(251.7 182.5)">L<tspan x="37.8" y="0">O</tspan><tspan x="92.2" y="0" letter-spacing="-.09em">Y</tspan><tspan x="133.1" y="0" letter-spacing="0em">AL</tspan></text><text font-family="MyriadPro-Regular, Myriad Pro" font-size="44" transform="translate(335.7 220.2)">RESCUE</text></g></symbol></svg>