<svg xmlns="http://www.w3.org/2000/svg"><symbol id="icon-1" viewBox="0 0 432 432"><path fill="none" stroke="#fff" stroke-miterlimit="10" stroke-width="11" d="M245.3 310v28.3c0 9.9 16.4-7.5 21.9-10.9s30.8-11.9 37.8-27.8 18.9-16.9 21.9-37.8 37.8-32.4 45.7-37.8-14.4-31.8-18.4-44.2-14.9-42.2-35.3-58.2-47.7-36.3-78.5-33.3-50.7 10.9-67.1 29.8-31.8 38.3-40.3 44.7-21.4 8.4-36.8 10.9-22.4 4-29.8 5-10.9 16.9-7 22.9 9.4 7 8.9 19.4-1 38.8 14.9 47.2 24.9 6.5 29.3 6 8 7 11.9 12.4 17.9 13.4 36.8 9.4 20.9-7.5 24.9-9.4 7.5 14.9 21.9 17.9 27.8 3.5 36.8 1z"/><path fill="none" stroke="#fff" stroke-miterlimit="10" stroke-width="11" d="M133 162.9c-3 12.4-6 29.3 5 41.3s11.9 20.9 9.4 30.3 4.7 22.9 1.1 32.8-12.9 18.6-29.1 11.8"/><path fill="none" stroke="#fff" stroke-linecap="round" stroke-linejoin="round" stroke-width="11" d="M174.2 166.3c-4.5 7.5-13.4 13.4-17.4 8.9s.5-16.4 5.5-16.4m59.2-27.7c-1.1 21.4-5.5 43.7-19.4 64.1s-22.9 45.7-19.4 68.6 6.3 30.3 19 38.3 33.1 8.5 50 0 36.8-27.3 44.7-47.7 7-38.8 11.9-47.7 12.9-33.8 0-49.7-21.4-20.9-30.8-18.4"/><path fill="none" stroke="#fff" stroke-miterlimit="10" stroke-width="11" d="M80.8 176.4c6.1-1.1 14.4 14.8 6.9 21.8s-14.2 14-21.3 12.2"/></symbol><symbol id="icon-1-reverse" viewBox="0 0 432 432"><path fill="none" stroke="#853335" stroke-miterlimit="10" stroke-width="11" d="M245.3 310v28.3c0 9.9 16.4-7.5 21.9-10.9s30.8-11.9 37.8-27.8 18.9-16.9 21.9-37.8 37.8-32.4 45.7-37.8-14.4-31.8-18.4-44.2-14.9-42.2-35.3-58.2-47.7-36.3-78.5-33.3-50.7 10.9-67.1 29.8-31.8 38.3-40.3 44.7-21.4 8.4-36.8 10.9-22.4 4-29.8 5-10.9 16.9-7 22.9 9.4 7 8.9 19.4-1 38.8 14.9 47.2 24.9 6.5 29.3 6 8 7 11.9 12.4 17.9 13.4 36.8 9.4 20.9-7.5 24.9-9.4 7.5 14.9 21.9 17.9 27.8 3.5 36.8 1z"/><path fill="none" stroke="#853335" stroke-miterlimit="10" stroke-width="11" d="M133 162.9c-3 12.4-6 29.3 5 41.3s11.9 20.9 9.4 30.3 4.7 22.9 1.1 32.8-12.9 18.6-29.1 11.8"/><path fill="none" stroke="#853335" stroke-linecap="round" stroke-linejoin="round" stroke-width="11" d="M174.2 166.3c-4.5 7.5-13.4 13.4-17.4 8.9s.5-16.4 5.5-16.4m59.2-27.7c-1.1 21.4-5.5 43.7-19.4 64.1s-22.9 45.7-19.4 68.6 6.3 30.3 19 38.3 33.1 8.5 50 0 36.8-27.3 44.7-47.7 7-38.8 11.9-47.7 12.9-33.8 0-49.7-21.4-20.9-30.8-18.4"/><path fill="none" stroke="#853335" stroke-miterlimit="10" stroke-width="11" d="M80.8 176.4c6.1-1.1 14.4 14.8 6.9 21.8s-14.2 14-21.3 12.2"/></symbol></svg>