<svg xmlns="http://www.w3.org/2000/svg"><symbol id="dog-1" viewBox="0 0 432 432"><g data-name="Layer 2"><path d="M353.6 294.8c-4.8-27.5-11.4-57.6-17-76.9-3.8-13.5-3.5-14-.6-18.9a86.8 86.8 0 0 0 5.2-9.9c7.5-17 8.7-24.6 8.1-32.7-.1-1.6.2-2 2.9-4a19.6 19.6 0 0 0 4.7-4.4c6.6-9.2 7.7-25.3 2.4-36.7-3.8-8.1-10.2-13-18.2-13.6-4-.3-8.2-3-13.2-6-12.8-8-30.4-18.9-61.6 1.6a16.7 16.7 0 0 0-5.6 6.1 25.1 25.1 0 0 0-9.4-4c-16.6-3.6-37 .6-54.5 11.1-11.1 6.7-20.8 16.1-27.9 23l-4.3 4.2c-1.7 1.5-3.7 3.7-6 6.2-7.4 8-18.7 20.2-29.1 23.1a146.9 146.9 0 0 1-18.2 3.5c-8.9 1.3-17.4 2.6-24.3 6.1-6.3 1.4-12.2 3-22.7 8.5-14.3 7.5-10.7 25.4-9.5 31.3s5.7 8.7 8.7 10.5l2.2 1.5c-1 7.3.8 13 2.8 18.1s4.6 8.6 6.9 12.2l1.9 3c1.3 2.7 9.5 12.9 20.5 15.3 6.4 1.4 14 .8 21.4.2 3.7-.3 7.3-.6 10.4-.6s11.1 2.2 18 4.4 17.3 5.3 25.4 6.1h2.7c6.7 10.8 20.9 40 21.2 45a7.7 7.7 0 0 0 3.3 6.3c8.5 6.3 38.4 1.9 46.8-.7s28.5 3.4 42.6 8c16.3 5.3 23.1 7.3 27.6 4a21.1 21.1 0 0 0 3.9-4.2c2.2-2.8 3.1-3.8 5.3-3.8h.1c3 0 9.2 2 21.2 11.1a6.7 6.7 0 0 0 4.4 1.7 6.3 6.3 0 0 0 3.3-.9c3.7-2.3 4.4-7.1 3.1-20.6-.8-8.7-2.5-20.5-4.9-34.2zm-81.3-192.4c25.3-16.6 37.7-8.9 49.7-1.4 5.9 3.7 11.4 7.1 18.1 7.7 4 .3 7.1 2.8 9.2 7.3 3.6 7.7 3 19.7-1.3 25.7a12.2 12.2 0 0 1-2.3 2l-.2.2c-14.2 1.4-22.3 14.2-26.7 21.1a37.9 37.9 0 0 1-2.4 3.6c-3.2 3.6-18.8 13.2-29.1 14.5-5.3.6-8.3-.4-9.3-1.5s-.8-.9-.4-2.5l.3-1.3c1.5-6.9 3.7-17.3 4.1-26.2.3-6.5-3.4-15.7-7.3-25.5-1.3-3.2-2.6-6.5-3.7-9.4a3.9 3.9 0 0 0 0-.6 22.8 22.8 0 0 0-1.2-4.4c-.6-3.1-.7-7.2 2.5-9.3zM73.7 216.8a23.8 23.8 0 0 0-4.4-3.3c-2.2-1.4-3.5-2.3-3.7-3.4-2.2-10.9-1-16.9 3.8-19.4 9.5-5 14.3-6.3 20.4-7.6 2 .5 5.8 5.5 6.5 8.3l-2.9 2c-5.6 3.7-11 7.2-11 12.6 0 .9.1 1.8.2 2.8.5 5 0 5.6-.8 5.9a49.4 49.4 0 0 1-8.1 2.1zm252.6 110c-7.6.1-11.5 5.1-13.8 8.1l-1.3 1.6c-3.1-.2-11.8-3-18.2-5.1-16.3-5.3-36.7-11.9-49.3-8-9.4 2.9-30.3 4.4-36.1 2.7-2-9.8-14.4-34.3-21.1-46a41.4 41.4 0 0 0 5-3.8c3.9-3.3 5.2-4.4 9.4-2.5h.3c17.1 6.6 27.1 1.8 32.4-3.4 9.3-9 9.8-24.3 7.3-31.8a5.5 5.5 0 1 0-10.4 3.6c1.7 5 .8 15.1-4.5 20.3s-11.4 4.6-20.7 1.1-16.5.5-20.8 4.3-6 4.9-10.4 4.5c-7-.7-15.6-3.3-23.2-5.7s-15.7-4.8-21.3-4.8c-3.6 0-7.5.3-11.3.6-6.6.5-13.4 1.1-18.1 0s-12.1-8-13-9.6-1.1-1.9-2.4-3.9-4.9-7.6-6-10.4-2.5-7.1-2.3-10.9a61.3 61.3 0 0 0 9.1-2.4c9.5-3.4 8.5-13.5 8.1-17.4v-.7a49.6 49.6 0 0 1 5.9-4.3c1.7-1.1 3.4-2.2 4.8-3.3s5.4-5.5 1.4-14.2a29.8 29.8 0 0 0-3.8-6c3.5-.7 7.2-1.3 11.1-1.9a153.2 153.2 0 0 0 19.5-3.8c13.4-3.8 25.9-17.3 34.1-26.2 2.2-2.4 4.1-4.4 5.4-5.6l4.5-4.3c6.7-6.5 15.9-15.4 26-21.5 17.8-10.7 35.7-12.1 46.5-9.8a13.5 13.5 0 0 1 9.4 7c1 4.7 3.4 10.6 5.9 16.9s6.8 16.7 6.6 20.8c-.4 8.1-2.5 18-3.9 24.5l-.3 1.3a13.5 13.5 0 0 0 3.1 12.2c2.3 2.5 6.6 5.3 14.3 5.3l4.5-.3c13.1-1.6 31.2-12.7 36-18.1a40.2 40.2 0 0 0 3.5-5c2.5-4 5.9-9.2 10.4-12.7.3 5.3-.4 11-7.2 26.7a75.8 75.8 0 0 1-4.6 8.7c-4.7 7.9-5.2 10.9-.5 27.5 10.3 36 20.8 94.1 22 114.6-9.2-6.2-16.2-9-22-8.9z"/><path d="M216.2 162.4c-6.3 2.8-11.6 3.9-16 3.9-7 0-11.7-2.9-14.2-6.6-4.1-6.3-2-14.8 5.1-21.3a5.5 5.5 0 0 1 7.4 8.1c-3.2 2.9-4.1 5.9-3.2 7.2s6.7 3 16.5-1.4a5.5 5.5 0 1 1 4.4 10.1z"/></g></symbol><symbol id="dog-2" viewBox="0 0 432 432"><g data-name="Layer 2"><path d="M191.1 288a31.5 31.5 0 0 0-3.2-4.1c2.3 6.1 5.5 9.4 11.1 12.9-3.5-2.3-5.9-5.8-7.9-8.8zm13.3 11.1a14.6 14.6 0 0 1-4.4-1.7c8.8 5.4 21.3 6.7 33.3 3.8-7.8.9-17.9.2-29-2.1zM76.2 181.8zM192.9 306c-5.8-3.7-9.7-7.6-12.5-12.4l.8-.5.8 1.1c2.3 3.4 5.7 8.3 10.9 11.8zm42.1 6.1a64.4 64.4 0 0 1-14.3 1.6c-9.4 0-18.4-2.1-25.8-6.5a25.8 25.8 0 0 0 7.1 2.6c12.6 2.7 24 3.4 33 2.3z"/><path d="M372.7 211.3c-2.2-5.2-5.9-11.3-9.5-17.2s-7.4-12.2-8.6-16.1c-5.1-15.8-16.6-44.8-37.2-60.8-18.1-14.1-48.3-37.7-82.4-34.4s-54 12.4-70.7 31.7l-12.6 14.7c-10.9 12.8-21.1 24.9-26.9 29.3s-19.4 7.5-33.5 9.7h-.8L75.1 171H75l-1.3.2c-5.2.9-9 1.6-12.9 2.1s-8.4 3.9-10.9 9.4-3.9 16.1 0 22a34.7 34.7 0 0 0 4 4.8c2.8 2.9 4.3 4.6 4 11.3-.5 11.5-1.7 41.9 17.8 52.3 16.3 8.6 26.2 7.4 31.5 6.7h.5c1.2.9 3.3 4.1 4.6 6s1.8 2.8 2.8 4.1c5 6.9 20.9 16.1 42.4 11.6 13.8-2.9 19.3-5.7 22.8-7.8l.8-.5.8 1.1c2.3 3.4 5.7 8.3 10.9 11.8l.9.6h.2l.9.5a25.8 25.8 0 0 0 7.1 2.6c12.5 2.6 23.9 3.3 32.9 2.2v26.2c0 5.1 2.7 7.1 4.4 7.9a7.4 7.4 0 0 0 3.1.7c5.1 0 11-5 17.5-10.6 2.1-1.8 4.2-3.6 5.3-4.3s3-1.5 5.2-2.6c10.6-5 28.4-13.3 34.7-27.7 2.5-5.6 5.7-9.1 9-12.8 5.3-5.8 11.2-12.3 13.2-26.4s22.1-23.3 34.2-29.2a84.1 84.1 0 0 0 9.2-4.9c4.9-3 5.6-8.8 2.1-17zM62 201.9a26 26 0 0 1-2.8-3.3c-1-1.6-1.1-7 .8-11.4 1.1-2.4 2.1-3 2.3-3 4.2-.6 8.2-1.3 13.4-2.2h.7c1 .6 3.2 3.4 3.8 7 .3 1.4.5 3.9-1 5.3l-1.7 1.6c-4.5 4.3-9.2 8.7-12.8 9.3a40.3 40.3 0 0 0-2.7-3.3zm56 72.6c-2.8-3.5-6.2-6.3-10.9-5.8H106c-4.4.6-11.8 1.5-25-5.5-3.3-1.8-13.4-7.1-12-42.1a35 35 0 0 0-.2-5.9c5.8-1.9 11.1-6.8 16.2-11.6l1.6-1.5c5.4-5 6.2-13.6 2.2-21.7l-.3-.6 3.7-.6h.8c10.2-1.6 19.6-3.2 27.4-6-1.5 10.7-1.1 24.2 8.6 34.8s10.2 17.4 8.2 25.2c-1.5 5.6-.4 11.7.7 17.5s2 10.9.6 14.8-3.3 7.6-8.1 9.6-7.5 1.2-12.4-.6zm238.8-51c-14 6.9-37.5 18.3-40.3 37.5-1.5 10.7-5.5 15-10.5 20.5s-7.8 8.5-11 15.8c-4.6 10.6-20.6 18.1-29.2 22.1a62.3 62.3 0 0 0-6.4 3.3 68.6 68.6 0 0 0-6.5 5.2 126 126 0 0 1-6.9 5.6V310l-.2-1.4 3.6-1.6c16.5-8.3 38.4-27.7 47.4-50.7 4.5-11.4 6.2-22.2 7.7-30.9 1.1-6.9 2.1-12.8 4-16.1a68 68 0 0 0 7.4-24.3c1.4-12.6-1.4-23.5-7.9-31.5-12-14.8-22.8-23.9-36.5-20.2a5.5 5.5 0 1 0 2.8 10.6c5.9-1.6 12.2.7 25.1 16.5 10.6 13.1 4.2 35-.5 43.6-2.8 5-3.9 11.8-5.2 19.7s-3 18.4-7 28.7c-7.6 19.4-26.9 37.2-42.1 44.8a52.6 52.6 0 0 1-11.3 4.1c-12 2.9-24.5 1.6-33.3-3.8h-.1l-.8-.5c-5.5-3.6-8.7-6.8-11.1-12.9s-3.1-11.3-4.6-21c-3-19.5 3.8-43.1 18.5-64.7 12.6-18.4 19-39.7 20.4-67a5.5 5.5 0 0 0-11-.5c-1.2 25.2-7.1 44.6-18.5 61.3-16.3 23.8-23.7 50.3-20.3 72.5a153 153 0 0 0 3.7 18.7h-.2c-2.8 1.8-6.7 4.3-20.6 7.2-12.3 2.6-21.9-.5-27.2-3.8a22.9 22.9 0 0 0 6.7-1.8c6.3-2.7 11.3-8.4 14-15.9s1.1-14.1-.1-20.6c-.9-4.9-1.7-9.5-.9-12.7 3.4-12.9.2-23.5-10.7-35.4-8.2-9-7-21.8-4.1-34.5 6.7-5.7 16.2-16.8 27-29.6l12.5-14.6c14.9-17.1 32.7-25 63.5-28 27.4-2.7 51.9 14.4 74.6 32.2 18.2 14.2 28.8 40.9 33.4 55.5 1.6 5.1 5.6 11.6 9.7 18.4s9.9 16.2 10.1 20c-1.5 1-4.1 2.3-7.1 3.7z"/><path d="M174.1 169.2c-3.5 5.9-10.5 12.5-17.4 13.1h-1.1a10 10 0 0 1-7.7-3.4c-4.3-4.8-3.2-12.2-1-17.1s6.3-8.5 10.6-8.5a5.5 5.5 0 0 1 .7 11c-1.3 1.2-2.6 5.2-2.2 6.9 1.8-.4 5.9-3.2 8.7-7.8a5.5 5.5 0 1 1 9.4 5.7zm-97.2 12.6z"/></g></symbol><symbol id="dog-3" viewBox="0 0 432 432"><g data-name="Layer 2"><path d="M319.1 101.6c-31.9-10.3-44-9.8-51.6 2.3-3.8 6.1-3.3 16.5-2.2 24.1a91.8 91.8 0 0 0 7.9 26.5c3.9 7.7.3 18.7-3.2 29.4a125.2 125.2 0 0 0-4.1 14.3c-3.7 18.7-.5 31.8 9.9 40.1-.4 10.7 0 39.3.2 52.4a156.2 156.2 0 0 1-1.4 22.1c-.9 7.5-1.6 13.5.5 19s3.1 17.6 3.1 25.8c-11.4-7.3-32.3-15.1-40.3-14.1a38.4 38.4 0 0 0-7.1 2c-9.1 3.1-14.9 4.5-19.9-5.3-10.4-20.5-27.3-24.4-39.1-25.6-2.6-.3-5.1-.3-7.5-.3a48.2 48.2 0 0 1-6.5-.3v-.2c3.1-10.2 5-27.2.9-43.2 7.3-1.1 14.9-1.4 22.3 1.5 16.2 6.3 34.3 21.3 41.8 31.5l8.9-6.5c-8.5-11.7-28.3-28.2-46.7-35.3-13.7-5.3-27.2-2.5-38-.2a77.5 77.5 0 0 1-12.1 2c-11.6.4-35.8 1.3-46.5-16.2-3-5-3.5-9.1-4-13s-1.1-9.1-5.3-12.8l3.4.2a27.9 27.9 0 0 0 14.1-3.8c9.6-5.6 12.3-8.2 12.2-14.7a12.7 12.7 0 0 1 1.3-6.2c2.5-6 2.5-11.4-.1-16s-4.9-6-9.2-8.1c6.5-1.5 12.9-2.7 18.2-2.7 16.3 0 20.7-9.4 25.4-19.3l2.1-4.3c4.8-9.5 15.9-31.8 24.1-35.9 4.4-2.2 10.8-3.7 17.5-5.2s14.9-3.4 22.6-6.4c13.3-5.2 37.5 5 53.5 11.7l4.3-10.1c-18.7-7.9-44.3-18.7-61.8-11.9a145.2 145.2 0 0 1-21.1 5.9l-1.4.3a5.5 5.5 0 0 0-2.5-3.5c-9.8-5.9-28.1-9.4-40.4-5-5.9 2.1-10.1 6-11.9 11.2l-1.4 3.9c-7.9 22-15.2 44.4-10.3 56.2a5.7 5.7 0 0 0 .7 1.2c-8.9.1-19 2.6-28.8 5-7.2 1.8-14 3.5-19.1 3.8-7.1.5-13.2 5.6-16.7 13.8-5.2 12.2-2.3 24.2 2.6 30.2a97.7 97.7 0 0 1 6.3 8.5A26.9 26.9 0 0 0 71 229c1.4 1 1.7 2.2 2.2 6.4s1.3 10.4 5.6 17.4c14.1 23 43.6 21.9 56.3 21.5a76.4 76.4 0 0 0 12.5-1.9c3.5 13.1 2.3 28.3-.6 37.9-1.2 4-.8 7.4 1.1 10.1 3.4 4.6 9.7 4.6 15.8 4.6 2.2 0 4.5 0 6.5.2 10.7 1.1 22.6 4.2 30.4 19.6 9.6 18.9 25 13.6 33.3 10.8a30.7 30.7 0 0 1 5-1.4c5.6-.7 32 9.7 36.9 15.4a7.2 7.2 0 0 0 5.5 2.8 6.3 6.3 0 0 0 3.2-.9c3.3-1.9 5.1-6.3 4-21.9-.5-7.7-1.8-17.5-3.5-22-1.1-3-.6-7.5.2-13.9a165.6 165.6 0 0 0 1.5-23.6c-.4-24.1-.5-43.5-.2-51 4.2-.3 11.2-1.8 22.1-9.2 17.2-11.8 39-35.8 43.6-64.6 3.8-24.1 4.8-51.3-33.3-63.7zm-180.7 4l1.4-4c.3-.7 1.1-3 5.3-4.5 6.9-2.5 17.9-1.3 25.8 1.7a44.5 44.5 0 0 0-5.3 2.2c-10.6 5.3-20.5 23.8-29 40.8l-2.2 4.6c-2.3 4.8-3.8 8.1-6.1 10.2a5.6 5.6 0 0 0-.4-2.6c-3.7-8.9 6.2-36.6 10.5-48.4zm-73.8 99.1c-3-4.3-3.3-12-.6-18.4 1.8-4.3 4.6-6.9 7.4-7.2a69.6 69.6 0 0 0 7.8-1.1 5.4 5.4 0 0 0 2.5 1.1c13.8 2.1 17.6 5.5 18.6 7.3s1.3 2.2-.5 6.4a23.4 23.4 0 0 0-2.1 10.8v.4c0 .1-2.2 1.8-6.7 4.5-10.4 6.1-23.5-1.9-26.4-3.8zM341.4 164c-3.8 23.7-22.3 45.9-38.9 57.3-10.6 7.3-15.7 7.4-18.4 7.4l-2.4.3c-6.2-5.7-7.8-14.9-5-28.6a118.4 118.4 0 0 1 3.8-13c4-12.2 8.5-25.9 2.6-37.7-6.8-13.7-9.3-34.7-6.1-39.8 1.3-2.1 2.8-4.4 9-4.4s14.3 1.7 29.9 6.8c27 8.6 29.8 24.8 25.5 51.7z"/><path d="M189.8 153.2c-4.2 0-8.1-1-10.7-3.8s-4.4-7.9.8-16.8a5.5 5.5 0 1 1 9.5 5.6 13.9 13.9 0 0 0-1.7 3.9c2.6.6 10.6-.3 20.2-4.8a5.5 5.5 0 1 1 4.7 10c-1.8.8-13.2 5.9-22.8 5.9z"/></g></symbol></svg>