<svg xmlns="http://www.w3.org/2000/svg"><symbol id="dog-1" viewBox="0 0 329.8 329.8"><g fill="none" stroke="#231f20" stroke-linecap="round" stroke-linejoin="round" stroke-width="11" data-name="Layer 2"><path d="M198 189.3c3.8 11-1.4 40.2-32.5 28.2-13.9-6.2-14.8 10.5-29.7 9.1s-34.4-10.5-44-10.5-22 2.4-30.6.5-15.8-10.5-16.7-12.4-6.7-10-8.6-14.8-3.3-9.6-2.4-15.8-9.6-6.2-11-13.4-3.3-20.1 6.7-25.4 15.3-6.7 22-8.1 16.3 13.9 12 17.2-12.9 7.7-12.9 11 2.4 11.5-4.3 13.9a49.6 49.6 0 0 1-12 2.8"/><path d="M51.1 126.7c10.5-5.7 26.8-5.3 42.1-9.6s30.6-24.4 37.3-30.6 18.3-18.6 31.4-26.5C180 49.1 199 46.7 212.4 49.5s15.2 15.9 15.2 15.9-5.2-12.7 3.9-18.7c40.4-26.6 53.6 3.9 71.3 5.3s20.4 29.7 11.9 41.6c-2.8 3.8-9.1 4.8-8.6 12s-.5 13.9-7.7 30.1-10.9 11.1-4.8 32.5c12.1 42.2 28.4 132.8 19.8 125.2-30.1-23-31.5-7.5-37.2-3.2s-49.8-18.6-68.6-12.8c-10.5 3.3-42.9 6.4-42.9-.3s-17.9-42.2-23.6-50.4"/><path d="M225.9 60.2c1.9 10 13.2 30.6 12.7 39.7s-2.9 19.9-4.3 26.7 3.8 12.1 15.8 10.6 28.7-12 32.5-16.3 11-22 26.3-23m-151.8-6.5c-11.7 10.6-3.7 25 19.1 14.9"/></g></symbol><symbol id="dog-2" viewBox="0 0 330 330"><g fill="none" stroke="#231f20" stroke-width="11" data-name="Layer 2"><path stroke-miterlimit="10" d="M193.7 259.4v28.3c0 9.9 16.4-7.5 21.9-10.9s30.8-11.9 37.8-27.8 18.9-16.9 21.9-37.8 37.8-32.4 45.7-37.8-14.4-31.8-18.4-44.2-15-42.3-35.4-58.2-47.7-36.3-78.5-33.3-50.7 10.9-67.1 29.8-31.8 38.3-40.3 44.7-21.3 8.5-36.7 11-22.4 4-29.8 5-11 16.8-7 22.8 9.4 7 8.9 19.4-1 38.8 14.9 47.2 24.9 6.5 29.3 6 8 7 11.9 12.4 17.9 13.4 36.8 9.4 20.9-7.5 24.9-9.4 7.5 14.9 21.9 17.9 27.8 3.5 36.8 1z"/><path stroke-miterlimit="10" d="M81.4 112.2c-3 12.4-6 29.3 5 41.3s11.9 20.9 9.4 30.3 4.7 22.9 1.1 32.8-12.9 18.7-29.1 11.8"/><path stroke-linecap="round" stroke-linejoin="round" d="M122.6 115.7c-4.5 7.5-13.4 13.4-17.4 8.9s.5-16.4 5.5-16.4m59.2-27.8c-1.1 21.4-5.5 43.7-19.4 64.1s-22.9 45.7-19.4 68.6 6.3 30.3 19 38.3 33.1 8.5 50 0 36.8-27.3 44.7-47.7 7-38.8 11.9-47.7 12.9-33.8 0-49.7-21.3-20.9-30.7-18.4"/><path stroke-miterlimit="10" d="M29.2 125.8c6.1-1.1 14.4 14.8 6.9 21.8s-14.2 14-21.3 12.2"/></g></symbol><symbol id="dog-3" viewBox="0 0 329.8 329.8"><g fill="none" stroke="#231f20" data-name="Layer 2"><path stroke-miterlimit="10" d="M113.7 213.8c4.9 15.7 2.9 33.4 0 43.2s8.8 6.9 18.7 7.9 25.3 3.9 34.7 22.6 24.8 7.3 32.7 6.4 35.9 10.4 41.8 17.3 2.8-28.5-.1-36.4 1.6-18.7 1.3-39.3-.6-51.1 0-55 5.6 2.9 24.2-9.8 37.3-36.4 41.3-60.9 3.9-47.2-29.5-58-40.3-7.9-45.2 0-1 31.4 5.9 45.2-3.9 32.4-6.9 47.2-2 28.5 10.2 36.4"/><path stroke-miterlimit="10" stroke-width="11" d="M227.7 50.7C209 42.8 185.2 33 170.1 38.9s-30.8 6.9-40.6 11.8-20.7 26.5-26.6 38.3-7.9 20.6-22.6 20.6-35.2 7.9-47.9 8.8-19.1 24.2-10.3 35.1 6.7 11.2 13.6 16.1 1.9 13.4 9.3 25.5c12.3 20 38.5 19.3 51.4 18.9s30.2-9 47.9-2.1 36.4 22.6 44.2 33.4"/><path stroke-miterlimit="10" d="M41 118.5c19.7 2.9 27.3 9.6 22.4 21.3s4 9.4-11.1 18.2-33.1-4.5-33.1-4.5m152.5-66.4c-14.7 6.9-35.4 9.8-25.5-6.9m-5.9-38.9c-11.8-7-39.4-10.6-44.3 3.4S79.3 89 84.2 100.8"/><path stroke-linecap="round" stroke-linejoin="round" stroke-width="11" d="M113.7 213.8c4.9 15.7 2.9 33.4 0 43.2s8.8 6.9 18.7 7.9 25.3 3.9 34.7 22.6 24.8 7.3 32.7 6.4 35.9 10.4 41.8 17.3 2.8-28.5-.1-36.4 1.6-18.7 1.3-39.3-.6-51.1 0-55 5.6 2.9 24.2-9.8 37.3-36.4 41.3-60.9 3.9-47.2-29.5-58-40.3-7.9-45.2 0-1 31.4 5.9 45.2-3.9 32.4-6.9 47.2-2 28.5 10.2 36.4M44 118.5c19.7 2.9 27.3 9.6 22.4 21.3s4 9.4-11.1 18.2-33.1-4.5-33.1-4.5m149.5-66.4c-14.7 6.9-35.4 9.8-25.5-6.9m-5.9-38.9c-11.8-7-39.4-10.6-44.3 3.4S79.3 89 84.2 100.8"/></g></symbol></svg>