<svg xmlns="http://www.w3.org/2000/svg" width="7.9in" height="5.4in" viewBox="0 0 572 390"><title>nav</title><g id="drawing"><path d="M97.7,188.3C84,179,78.7,178,73.7,178S90,195,85,222.3c-3.7,20.2-8.3,34-19.7,43.3,10.3,1,16.3,2,24.7-11.7s20.3-31.9,20.3-31.9l-2-27.1Z" fill="#fff"/><path d="M97.7,188.3c15.3-3.6,19.3-14.7,22-24s13.3-22,27.3-24.7,28-37.3,32-45.3,16,15.3,14,30c8.7,11.3,12.7,11.7,21.3,16.2s26,41.8,36.7,47.8,40,12,46,12,10.3-.7,13-2.3c6.3,4,11,6.7,11,6.7s2.3,7.3,1.7,9c1,3.7-.3,20.7-7.7,25.3s-28.7,25-43,30.7-37,11.3-58,2.7-53.7-25-79.7-22.7S89,255.3,90,254C97,245,104.7,220.7,97.7,188.3Z" fill="#fff" stroke="#fff" stroke-miterlimit="10" stroke-width="7"/><path d="M90,254c-3.3,15-5.3,22.8-5.3,22.8" fill="#9cc"/><path d="M87.6,277.5,81.8,276c0-.1,2-7.9,5.3-22.7l5.9,1.3C89.6,269.5,87.6,277.5,87.6,277.5Z" fill="#fff"/><circle cx="82.9" cy="292.7" r="15.9" fill="none" stroke="#fff" stroke-miterlimit="10" stroke-width="7"/></g><g id="type"><path d="M260,121.5h12.2v43.7h21.4v10.2H260Z" fill="#fff"/><path d="M347.1,147.9c0,17.8-10.6,28.4-26.5,28.4s-25.4-12.1-25.4-27.5,10.4-28.2,26.2-28.2S347.1,133,347.1,147.9Zm-39,.6c0,10.6,5,18.1,13.1,18.1s13-7.8,13-18.3-4.6-18.1-13-18.1S308.2,138.1,308.2,148.6Z" fill="#fff"/><path d="M364.7,175.5V153.4l-17-31.8h14l5.4,13c1.7,3.9,2.9,6.8,4.2,10.3h.2c1.2-3.4,2.5-6.5,4.1-10.3l5.4-13h13.7L376.8,153v22.5Z" fill="#fff"/><path d="M405.6,161.6l-3.8,13.8H389.2l16.4-53.9h16l16.8,53.9H425.2l-4.2-13.8Zm13.7-9.1-3.4-11.4c-1-3.2-1.9-7.2-2.7-10.4h-.2c-.8,3.2-1.6,7.3-2.5,10.4l-3.2,11.4Z" fill="#fff"/><path d="M445.6,121.5h12.2v43.7h21.4v10.2H445.6Z" fill="#fff"/><path d="M342,184a44.6,44.6,0,0,1,7.3-.6c4.1,0,6.8.8,8.6,2.4a7.6,7.6,0,0,1,2.3,5.7,7.8,7.8,0,0,1-5.5,7.5h0c2.2.8,3.6,2.9,4.3,6s1.7,7,2.3,8.1h-4a37.2,37.2,0,0,1-1.9-7.1c-.9-4.1-2.5-5.6-6-5.8h-3.6v12.8H342Zm3.8,13.5h3.9c4.1,0,6.7-2.2,6.7-5.6s-2.8-5.5-6.8-5.5a16.8,16.8,0,0,0-3.8.3Z" fill="#fff"/><path d="M381,199.3H369.5V210h12.9v3.2H365.6V183.6h16.1v3.2H369.5v9.4H381Z" fill="#fff"/><path d="M386.8,208.6a13,13,0,0,0,6.8,1.9c3.9,0,6.2-2.1,6.2-5.1s-1.6-4.4-5.6-5.9-7.8-4.3-7.8-8.4,3.8-8.1,9.6-8.1a13.3,13.3,0,0,1,6.5,1.5l-1.1,3.1a11,11,0,0,0-5.6-1.4c-4,0-5.6,2.4-5.6,4.4s1.8,4.1,5.9,5.7,7.5,4.4,7.5,8.7-3.3,8.6-10.3,8.6a15.3,15.3,0,0,1-7.6-1.9Z" fill="#fff"/><path d="M429.7,212.3a18.8,18.8,0,0,1-7.8,1.4c-8.4,0-14.6-5.3-14.6-15s6.3-15.6,15.5-15.6a16.1,16.1,0,0,1,7,1.3l-1,3.1a13.6,13.6,0,0,0-5.9-1.2c-7,0-11.6,4.4-11.6,12.2s4.2,11.9,11.4,11.9a15.4,15.4,0,0,0,6.3-1.2Z" fill="#fff"/><path d="M438.4,183.6v17.6c0,6.6,2.9,9.4,6.9,9.4s7.2-2.9,7.2-9.4V183.6h3.9v17.3c0,9.1-4.8,12.8-11.2,12.8s-10.6-3.4-10.6-12.7V183.6Z" fill="#fff"/><path d="M478.3,199.3H466.8V210h12.8v3.2H463V183.6H479v3.2H466.8v9.4h11.5Z" fill="#fff"/></g></svg>