<svg id="Layer_1" data-name="Layer 1" xmlns="http://www.w3.org/2000/svg" width="32" height="32" viewBox="0 0 32 32"><title>Artboard 1</title><path d="M3.1,14.7c-1-.7-1.4-.8-1.8-.8s1.4,1.1.9,3.4S1.5,19.8.7,20.5a1.5,1.5,0,0,0,1.9-.9l1.5-2.4-.2-2.1Z" fill="#843334"/><path d="M3.1,14.7a2.2,2.2,0,0,0,1.7-1.8A2.9,2.9,0,0,1,6.8,11C7.9,10.8,9,8.2,9.3,7.6s1.2,1.2,1.1,2.3a3.3,3.3,0,0,0,1.6,1.2c.7.3,2,3.2,2.8,3.6a12.3,12.3,0,0,0,3.5.9l1-.2.8.5a2.2,2.2,0,0,1,.1.7c.1.3,0,1.6-.6,1.9a21.5,21.5,0,0,1-3.3,2.3,6,6,0,0,1-4.4.2c-1.6-.7-4.1-1.9-6-1.7l-3.4.3A6.5,6.5,0,0,0,3.1,14.7Z" fill="#9cc" stroke="#843334" stroke-miterlimit="10"/><path d="M2.5,19.7l-.4,1.7" fill="#9cc" stroke="#843334" stroke-miterlimit="10"/><circle cx="2" cy="22.6" r="1.2" fill="#9cc" stroke="#843334" stroke-miterlimit="10"/><text transform="translate(14.6 13.9)" font-size="6.06" fill="#843334" font-family="MyriadPro-Bold, Myriad Pro" font-weight="700"><tspan letter-spacing="-0.04em">L</tspan><tspan x="2.9" y="0" letter-spacing="-0.04em">O</tspan><tspan x="7" y="0" letter-spacing="-0.09em">Y</tspan><tspan x="10.1" y="0">AL</tspan></text><text transform="translate(20.9 17.1)" font-size="3.33" fill="#843334" font-family="MyriadPro-Regular, Myriad Pro">RESCUE</text></svg>